<svg width="16" height="16" viewBox="0 0 16 16" fill="none" xmlns="http://www.w3.org/2000/svg">
<path d="M11.94 2.53888C11.8643 2.35358 11.6019 2.35358 11.5263 2.53888L11.2036 3.32908C11.128 3.51438 10.9809 3.66143 10.7956 3.73709L10.0054 4.05971C9.82013 4.13537 9.82013 4.39777 10.0054 4.47343L10.7956 4.79605C10.9809 4.87171 11.128 5.01876 11.2036 5.20406L11.5263 5.99426C11.6019 6.17956 11.8643 6.17956 11.94 5.99426L12.2626 5.20406C12.3383 5.01876 12.4853 4.87171 12.6706 4.79605L13.4608 4.47343C13.6461 4.39777 13.6461 4.13537 13.4608 4.05971L12.6706 3.73709C12.4853 3.66143 12.3383 3.51438 12.2626 3.32908L11.94 2.53888Z" fill="#3587FC"/>
<path d="M11.94 2.53888C11.8643 2.35358 11.6019 2.35358 11.5263 2.53888L11.2036 3.32908C11.128 3.51438 10.9809 3.66143 10.7956 3.73709L10.0054 4.05971C9.82013 4.13537 9.82013 4.39777 10.0054 4.47343L10.7956 4.79605C10.9809 4.87171 11.128 5.01876 11.2036 5.20406L11.5263 5.99426C11.6019 6.17956 11.8643 6.17956 11.94 5.99426L12.2626 5.20406C12.3383 5.01876 12.4853 4.87171 12.6706 4.79605L13.4608 4.47343C13.6461 4.39777 13.6461 4.13537 13.4608 4.05971L12.6706 3.73709C12.4853 3.66143 12.3383 3.51438 12.2626 3.32908L11.94 2.53888Z" fill="#3587FC"/>
<path d="M7.72277 3.8762C7.59656 3.56706 7.15881 3.56706 7.03259 3.8762L6.34872 5.5512C5.97009 6.47858 5.23414 7.21454 4.30676 7.59317L2.63175 8.27704C2.32262 8.40325 2.32262 8.841 2.63175 8.96722L4.30676 9.65109C5.23414 10.0297 5.97009 10.7657 6.34872 11.6931L7.03259 13.3681C7.15881 13.6772 7.59656 13.6772 7.72277 13.3681L8.40664 11.6931C8.78527 10.7657 9.52123 10.0297 10.4486 9.65109L12.1236 8.96722C12.4327 8.841 12.4327 8.40325 12.1236 8.27704L10.4486 7.59317C9.52123 7.21454 8.78527 6.47858 8.40664 5.5512L7.72277 3.8762Z" fill="#3587FC"/>
<path d="M7.72277 3.8762C7.59656 3.56706 7.15881 3.56706 7.03259 3.8762L6.34872 5.5512C5.97009 6.47858 5.23414 7.21454 4.30676 7.59317L2.63175 8.27704C2.32262 8.40325 2.32262 8.841 2.63175 8.96722L4.30676 9.65109C5.23414 10.0297 5.97009 10.7657 6.34872 11.6931L7.03259 13.3681C7.15881 13.6772 7.59656 13.6772 7.72277 13.3681L8.40664 11.6931C8.78527 10.7657 9.52123 10.0297 10.4486 9.65109L12.1236 8.96722C12.4327 8.841 12.4327 8.40325 12.1236 8.27704L10.4486 7.59317C9.52123 7.21454 8.78527 6.47858 8.40664 5.5512L7.72277 3.8762Z" fill="#3587FC"/>
</svg>
