<svg width="113" height="107" viewBox="0 0 113 107" fill="none" xmlns="http://www.w3.org/2000/svg">
<mask id="path-1-inside-1_4013_1138" fill="white">
<path d="M56.5 40.7178C82.268 40.7178 104.006 50.7937 110.798 64.5674C105.476 62.1493 99.5457 60.2023 93.1924 58.8975C65.8038 53.2726 40.938 61.681 37.6523 77.6777C35.597 87.6855 42.4749 98.2921 54.6191 106.209C54.2465 106.213 53.8735 106.218 53.5 106.218C22.2959 106.218 0 91.9432 0 73.7178C0 55.4924 25.2959 40.7178 56.5 40.7178Z"/>
</mask>
<path d="M56.5 40.7178C82.268 40.7178 104.006 50.7937 110.798 64.5674C105.476 62.1493 99.5457 60.2023 93.1924 58.8975C65.8038 53.2726 40.938 61.681 37.6523 77.6777C35.597 87.6855 42.4749 98.2921 54.6191 106.209C54.2465 106.213 53.8735 106.218 53.5 106.218C22.2959 106.218 0 91.9432 0 73.7178C0 55.4924 25.2959 40.7178 56.5 40.7178Z" fill="#D9D9D9"/>
<path d="M110.798 64.5674L110.384 65.4778L112.933 66.6359L111.695 64.1251L110.798 64.5674ZM93.1924 58.8975L93.3936 57.9179V57.9179L93.1924 58.8975ZM37.6523 77.6777L36.6728 77.4765L36.6728 77.4766L37.6523 77.6777ZM54.6191 106.209L54.6301 107.209L57.9289 107.173L55.1652 105.371L54.6191 106.209ZM56.5 40.7178V41.7178C69.2595 41.7178 80.9949 44.2134 90.3573 48.3907C99.7365 52.5755 106.644 58.4046 109.901 65.0097L110.798 64.5674L111.695 64.1251C108.16 56.9565 100.802 50.8608 91.1723 46.5642C81.5258 42.2602 69.5085 39.7178 56.5 39.7178V40.7178ZM110.798 64.5674L111.212 63.657C105.82 61.2071 99.8181 59.2373 93.3936 57.9179L93.1924 58.8975L92.9912 59.877C99.2734 61.1672 105.132 63.0914 110.384 65.4778L110.798 64.5674ZM93.1924 58.8975L93.3936 57.9179C79.5568 55.0762 66.3099 55.7674 56.0635 59.2322C45.8438 62.6879 38.4168 68.9858 36.6728 77.4765L37.6523 77.6777L38.6319 77.8789C40.1736 70.373 46.8224 64.4683 56.7041 61.1268C66.5592 57.7944 79.4394 57.0938 92.9912 59.877L93.1924 58.8975ZM37.6523 77.6777L36.6728 77.4766C34.4912 88.0992 41.812 99.0537 54.073 107.047L54.6191 106.209L55.1652 105.371C43.1378 97.5305 36.7028 87.2718 38.6319 77.8789L37.6523 77.6777ZM54.6191 106.209L54.6082 105.209C54.2329 105.213 53.8666 105.218 53.5 105.218V106.218V107.218C53.8803 107.218 54.2602 107.213 54.6301 107.209L54.6191 106.209ZM53.5 106.218V105.218C38.0382 105.218 24.8557 101.679 15.5736 95.9513C6.29042 90.2225 1 82.377 1 73.7178H0H-1C-1 83.284 4.85753 91.6884 14.5233 97.6533C24.1902 103.619 37.7577 107.218 53.5 107.218V106.218ZM0 73.7178H1C1 65.1078 6.98235 57.1286 17.0528 51.2468C27.0989 45.3791 41.0434 41.7178 56.5 41.7178V40.7178V39.7178C40.7525 39.7178 26.447 43.4438 16.0441 49.5197C5.66561 55.5815 -1 64.1024 -1 73.7178H0Z" fill="black" mask="url(#path-1-inside-1_4013_1138)"/>
<mask id="path-3-inside-2_4013_1138" fill="white">
<path d="M36.1889 77.0827C39.5692 60.6234 64.5121 51.8406 91.9008 57.4655C98.5339 58.8278 104.701 60.9116 110.193 63.5192C111.827 66.6052 112.708 69.8843 112.708 73.2839C112.708 91.5092 87.4125 106.284 56.2084 106.284C55.0945 106.284 53.9881 106.263 52.8901 106.226C40.8535 98.1675 34.0814 87.3448 36.1889 77.0827Z"/>
</mask>
<path d="M36.1889 77.0827C39.5692 60.6234 64.5121 51.8406 91.9008 57.4655C98.5339 58.8278 104.701 60.9116 110.193 63.5192C111.827 66.6052 112.708 69.8843 112.708 73.2839C112.708 91.5092 87.4125 106.284 56.2084 106.284C55.0945 106.284 53.9881 106.263 52.8901 106.226C40.8535 98.1675 34.0814 87.3448 36.1889 77.0827Z" fill="#9C9C9A"/>
<path d="M36.1889 77.0827L35.2094 76.8815L35.2094 76.8815L36.1889 77.0827ZM91.9008 57.4655L92.102 56.4859L92.102 56.4859L91.9008 57.4655ZM110.193 63.5192L111.077 63.0512L110.921 62.7581L110.622 62.6159L110.193 63.5192ZM112.708 73.2839H113.708V73.2838L112.708 73.2839ZM56.2084 106.284V107.284V107.284V106.284ZM52.8901 106.226L52.3337 107.057L52.571 107.216L52.8563 107.226L52.8901 106.226ZM36.1889 77.0827L37.1685 77.2839C38.7604 69.5327 45.4687 63.4235 55.3738 59.9358C65.2573 56.4556 78.1525 55.6629 91.6997 58.4451L91.9008 57.4655L92.102 56.4859C78.2603 53.6432 64.9897 54.4295 54.7096 58.0493C44.451 61.6615 36.9978 68.1734 35.2094 76.8815L36.1889 77.0827ZM91.9008 57.4655L91.6997 58.4451C98.2563 59.7916 104.347 61.8504 109.764 64.4225L110.193 63.5192L110.622 62.6159C105.056 59.9728 98.8114 57.8639 92.102 56.4859L91.9008 57.4655ZM110.193 63.5192L109.309 63.9873C110.875 66.9429 111.708 70.0625 111.708 73.2839L112.708 73.2839L113.708 73.2838C113.708 69.7061 112.78 66.2674 111.077 63.0512L110.193 63.5192ZM112.708 73.2839H111.708C111.708 81.8939 105.726 89.873 95.6556 95.7549C85.6095 101.623 71.665 105.284 56.2084 105.284L56.2084 106.284V107.284C71.9559 107.284 86.2615 103.558 96.6643 97.4819C107.043 91.4201 113.708 82.8992 113.708 73.2839H112.708ZM56.2084 106.284V105.284C55.1068 105.284 54.0116 105.264 52.9239 105.227L52.8901 106.226L52.8563 107.226C53.9645 107.263 55.0823 107.284 56.2084 107.284V106.284ZM52.8901 106.226L53.4464 105.395C41.5388 97.4229 35.1836 86.9488 37.1685 77.2839L36.1889 77.0827L35.2094 76.8815C32.9792 87.7407 40.1683 98.9121 52.3337 107.057L52.8901 106.226Z" fill="black" mask="url(#path-3-inside-2_4013_1138)"/>
<path d="M96.8091 11.7178C86.1648 18.845 76.6679 29.839 73.5 34.7178L65 56.2178L76.5 63.2178L98.5 40.7178C101.541 29.0087 98.7098 16.1723 96.8091 11.7178Z" fill="#D0D0D1" stroke="black"/>
<path d="M17.7464 11.7178C12.0622 27.7 14.7775 38.7104 16.5 41.7178L37.5 61.7178L45.5 52.7178L41 33.2178C29.6316 18.7822 20.7608 13.0067 17.7464 11.7178Z" fill="#D0D0D1" stroke="black"/>
<path d="M57.5841 0.717773C36.5914 23.557 38.579 45.3518 42.5151 54.1884L71.936 54.7178C79.2834 28.6158 65.2378 8.1949 57.5841 0.717773Z" fill="#D0D0D1" stroke="black"/>
<path d="M56.8613 46.2178C64.6247 46.2178 71.3206 50.825 74.4043 57.4775C70.0076 62.2223 66.31 68.1775 63.3398 72.9365C61.8218 75.3689 60.5016 77.4765 59.3672 78.9775C58.7997 79.7284 58.2937 80.3058 57.8486 80.6914C57.3898 81.089 57.0681 81.2178 56.8613 81.2178C56.0012 81.2176 54.9961 80.5885 53.7686 79.2539C52.5626 77.9428 51.2447 76.0679 49.748 73.8164C46.8111 69.3982 43.2233 63.5929 38.5811 58.1318C41.5549 51.1948 48.8799 46.2179 56.8613 46.2178Z" fill="#E8E9E9" stroke="black"/>
<path d="M56 81.4576C43.2222 83.17 16.1333 77.2194 10 39.7178C17.6667 40.788 37.6 50.6343 56 81.4576Z" fill="#DFDFDF" stroke="black"/>
<path d="M57 81.5599C61.5 76.3669 65.3571 58.8406 102 38.7178C100.5 54.0804 89.4 84.1564 57 81.5599Z" fill="#DFDFDE" stroke="black"/>
</svg>
