<svg width="20" height="20" viewBox="0 0 20 20" fill="none" xmlns="http://www.w3.org/2000/svg">
<g clip-path="url(#clip0_34_6515)">
<path d="M20 10C20 4.47715 15.5228 0 10 0C4.47715 0 0 4.47715 0 10C0 15.5228 4.47715 20 10 20C15.5228 20 20 15.5228 20 10Z" fill="#F2F5FA"/>
<path d="M10.0005 14.0628L6.58376 16.1045C6.43099 16.1878 6.28168 16.2226 6.13585 16.2087C5.99001 16.1947 5.86154 16.1462 5.75043 16.0628C5.63932 15.9795 5.55599 15.8649 5.50043 15.7191C5.44487 15.5732 5.43793 15.4239 5.4796 15.2712L6.37543 11.4587L3.3546 8.89616C3.2296 8.78507 3.15321 8.65657 3.12543 8.51074C3.09766 8.36491 3.1046 8.22254 3.14626 8.08365C3.18793 7.94476 3.26432 7.83017 3.37543 7.7399C3.48654 7.64962 3.62543 7.59754 3.7921 7.58365L7.75043 7.22948L9.31295 3.60448C9.38237 3.45171 9.47962 3.33712 9.60462 3.26073C9.72962 3.18434 9.86154 3.14615 10.0005 3.14615C10.1393 3.14615 10.2713 3.18434 10.3963 3.26073C10.5213 3.33712 10.6185 3.45171 10.688 3.60448L12.2505 7.25032L16.2088 7.58365C16.3755 7.59754 16.5143 7.65309 16.6255 7.75032C16.7365 7.84754 16.813 7.96559 16.8546 8.10448C16.8963 8.24337 16.8997 8.38224 16.865 8.52116C16.8303 8.66007 16.7505 8.78507 16.6255 8.89616L13.6255 11.4587L14.5213 15.2712C14.563 15.4239 14.556 15.5732 14.5005 15.7191C14.4449 15.8649 14.3615 15.9795 14.2505 16.0628C14.1393 16.1462 14.0109 16.1947 13.865 16.2087C13.7192 16.2226 13.5699 16.1878 13.4171 16.1045L10.0005 14.0628Z" fill="#C1CAD9"/>
</g>
<defs>
<clipPath id="clip0_34_6515">
<rect width="20" height="20" fill="white"/>
</clipPath>
</defs>
</svg>
